<svg id="Layer_1" data-name="Layer 1" xmlns="http://www.w3.org/2000/svg" viewBox="0 0 522.1 269.5"><defs><style>.cls-1{fill:none;}.cls-2{fill:#969696;}</style></defs><path d="M119.67,113c-.88,4-2.22,10.08-2.22,10.08l-15.34,0s1.39-6.82,2.07-10.08Z"/><path d="M155.35,84.07l-1.17,5.66h5.65l-7.11,34h8.48l7.12-33.95H174l1.2-5.66Z"/><path d="M187.11,95.33h-3.27L186.18,84H177.7l-8.31,39.61h8.49L182.64,101h3.07a2.25,2.25,0,0,1,2,2.82l-4.17,19.81,8.49,0L196.8,101C197.41,97.92,195.48,95.37,187.11,95.33Z"/><path d="M212.67,95.29c-8.76,0-11.86,2.57-12.48,5.67l-3.6,17c-.66,3.12,1.38,5.65,10,5.64,8.87,0,11.94-2.55,12.6-5.68l.57-2.83-8.49,0a3.59,3.59,0,0,1-3.39,2.83,2.22,2.22,0,0,1-2.26-2.82l.62-2.83,14.14,0,2.4-11.31C223.44,97.82,221.45,95.27,212.67,95.29Zm1.05,8.48-.62,2.83h-5.66l.63-2.83a3.67,3.67,0,0,1,3.43-2.84A2.2,2.2,0,0,1,213.72,103.77Z"/><path d="M100.48,113.08l-2.11,10.08-17.15,0L77,143.38l15.14,0L90,153.43l-15.14,0-6.31,30.27-15.12,0,14.8-70.62Z"/><path d="M100,133.25,89.4,183.69l15.12,0,10.62-50.44Z"/><path d="M140.52,113l-4.2,20.17,12.09,0-2.09,10.1-12.11,0L128.8,168.5a4,4,0,0,0,4.06,5h7.06l-2.11,10.08h-8.26c-14.73,0-18.07-4.7-16.87-10L125.38,113Z"/><path d="M175.45,133.12l-21,0L143.86,183.6l15.14,0,8.51-40.35h5.43a4,4,0,0,1,3.54,5l-7.39,35.32,15.12,0,8.51-40.35C193.82,137.72,190.37,133.09,175.45,133.12Z"/><path d="M221,133c-15.64,0-21.18,4.58-22.28,10.13l-6.4,30.27c-1.19,5.55,2.44,10.07,17.88,10,15.84,0,21.27-4.56,22.48-10.11l1-5.05-15.12,0a6.44,6.44,0,0,1-6.06,5.05,4,4,0,0,1-4-5l1.1-5,25.22,0,4.31-20.17C240.21,137.55,236.68,133,221,133Zm1.84,15.11-1.1,5-10.08,0,1.1-5.05a6.55,6.55,0,0,1,6.15-5A3.9,3.9,0,0,1,222.88,148.15Z"/><path d="M269.15,133c-17.35,0-22.89,4.59-24,10.14L243,153.17c-1.1,5.54,2.44,10.08,18.08,10.06a3.9,3.9,0,0,1,3.94,5,6.42,6.42,0,0,1-6.05,5,3.93,3.93,0,0,1-4-4.83v-.21l-15.12,0-1,5.05c-1.18,9.17,9.59,10.06,16.36,10,17.36,0,22.78-4.56,24-10.11l2.09-10.1c1.21-5.55-2.44-10.09-18.06-10.06a3.9,3.9,0,0,1-3.94-5,6.54,6.54,0,0,1,6.15-5,3.85,3.85,0,0,1,3.92,4.84v.18l15.14,0,1.1-5C286.61,133.83,275.92,132.94,269.15,133Z"/><path d="M313.94,132.88c-17.35,0-22.89,4.58-24,10.13l-2.2,10.08c-1.1,5.55,2.44,10.09,18.07,10.06,2.83,0,4.54,2.21,3.95,5a6.45,6.45,0,0,1-6,5.06,3.93,3.93,0,0,1-4-4.84v-.2l-15.14,0-1,5.05c-1.2,9.17,9.59,10.06,16.36,10.05,17.34,0,22.78-4.57,24-10.12l2.09-10.1c1.21-5.54-2.44-10.08-18.08-10.06-2.81,0-4.53-2.21-3.92-5a6.54,6.54,0,0,1,6.13-5,3.86,3.86,0,0,1,3.94,4.84V148l15.14,0,1.1-5C331.39,133.75,320.69,132.86,313.94,132.88Z"/><path d="M377.79,112.6c-15.64,0-21.08,4.56-22.27,10.11l-10.6,50.46c-1.21,5.55,2.44,10.07,17.85,10.05,15.85,0,21.29-4.57,22.48-10.12L387.36,163l-15.14,0-1.1,5.05a6.41,6.41,0,0,1-6,5.06,4,4,0,0,1-4-5l8.49-40.37a6.52,6.52,0,0,1,6.14-5,3.9,3.9,0,0,1,3.95,5l-1,5,15.14,0,2.11-10.1C397.06,117.09,393.43,112.57,377.79,112.6Z"/><path d="M404,112.55l-14.81,70.62,15.14,0,14.79-70.62Z"/><path d="M446.2,132.65,437.71,173h-5.45a4,4,0,0,1-3.63-5l7.5-35.32-15.14,0-8.49,40.37c-1.21,5.43,2.33,10.07,17.26,10l21,0,10.61-50.44Z"/><path d="M488.37,132.57h-5.85l4.2-20.17-15.12,0-14.81,70.61L477,183c15.64,0,21.09-4.57,22.28-10.11l6.4-30.27C506.73,137.18,503.3,132.64,488.37,132.57Zm1,15.12-4.31,20.19a6.41,6.41,0,0,1-6,5.06h-5l6.4-30.27h5.45A4,4,0,0,1,489.41,147.69Z"/><line class="cls-1" x1="119.67" y1="113.04" x2="104.18" y2="113.07"/><path d="M87.12,51.39c39.13-24.12,94.85-28.1,131.74-4.93,16.34,10.26,29,25.86,34.82,47.4q.72,2.67,1.3,5.35c1.22,5,2.1,18.67,2.53,24.44l-12.62-.21c-.3-3.15-2.29-14.61-2.76-17.54C232,47.35,166.2,31.87,119.26,51.34,73.52,70.31,39,102.56,27,148.55a88.86,88.86,0,0,0-3.35,18c-2,26.5,9.22,49.14,28,63.63,16.12,12.45,37.79,18.89,61.36,16.67,27.32-2.62,50.34-13.35,70.81-29.18a200.92,200.92,0,0,0,15.48-13.35A142.89,142.89,0,0,0,211,193.54l17.85,0c-45.22,67.9-151,98.74-204.53,31.59A90.29,90.29,0,0,1,9,168.79a121.19,121.19,0,0,1,9.89-41.09l2.41-5.36A165.1,165.1,0,0,1,57.79,72.77S71.65,60.08,87.12,51.39Z"/><path class="cls-2" d="M269,123.7c-2.83.1-11.53,0-11.53,0-.46-4.79-1.84-20.14-3.29-26l-1.59-6.24C247.32,72.73,235.88,51.08,212.3,36c-19-12.16-44.3-16.06-69.16-12.4C33.11,38.3,8.77,147,8.77,147L8,149.51c.27-16.46,4.06-28.91,10-42.7a1.19,1.19,0,0,1,.08-.2c.76-1.78,1.55-3.52,2.38-5.27C34.64,71.43,67.28,39.78,94,25.26c29.35-15.69,64.88-21.18,97.28-12.7,39.73,10.41,70.5,44.86,75.3,86Z"/><path class="cls-2" d="M211,193.54a139.3,139.3,0,0,1-11.72,10.76,179.06,179.06,0,0,1-15.49,11.32C142.3,242.87,74.2,254.72,39.5,209.36c-5.67-7.4-8.94-16.56-11.34-25.56A50,50,0,0,1,27,176.35l-.09-2.28.79,2.3c11.2,33,44.41,52.85,84.46,49.1,29.31-2.81,53.34-14.27,74.9-31.89Z"/></svg>