<svg id="Layer_1" data-name="Layer 1" xmlns="http://www.w3.org/2000/svg" viewBox="0 0 275.56 269.5"><defs><style>.cls-1{fill:#fff;}.cls-2{fill:#fc0800;}</style></defs><path class="cls-1" d="M256.86,122.6l-12.58-.25c-.3-3.12-2.26-14.58-2.73-17.51-10-58.44-75.64-74-122.51-54.64C73.37,69,38.88,101.16,26.81,147A86.68,86.68,0,0,0,23.44,165c-2.09,26.43,9.12,49,27.85,63.54C67.35,241,89,247.45,112.49,245.28c27.24-2.59,50.24-13.25,70.71-29,3-2.34,3.39-3,6.29-5.54h23c-50.07,55.54-139.79,74-188.5,12.68C12.17,205.85,7.74,186.53,8.77,167.21a120.67,120.67,0,0,1,9.93-41l2.42-5.36a164.6,164.6,0,0,1,36.56-49.4S71.51,58.84,87,50.2c39.09-24,94.68-27.89,131.46-4.69,16.28,10.26,28.85,25.85,34.65,47.34.48,1.79.9,3.57,1.29,5.36C255.6,103.17,256.44,116.83,256.86,122.6Z"/><path class="cls-1" d="M94.93,82h49.59l-3.66,15.49H114.52l-7.32,31h23.25L126.63,144H103.39l-11,46.48H69.18Z"/><path class="cls-1" d="M158,168.84c-1.1,4.56,1.74,8.15,6.3,8.15a10.76,10.76,0,0,0,10-8.15l2-8.14h24.44L196.92,177c-2.19,9-11.18,16.29-36.76,16.29-24.92,0-30.6-7.33-28.41-16.29l19.39-81.46c2.18-9,11.17-16.29,36.42-16.29s30.93,7.33,28.74,16.29l-3.84,16.29H188l1.84-8.14c1.1-4.56-1.58-8.15-6.14-8.15a10.93,10.93,0,0,0-10.15,8.15Z"/><path class="cls-2" d="M268.37,122.66c-2.82.1-11.51-.07-11.51-.07-.45-4.78-1.79-20.1-3.23-26l-1.58-6.22c-5.27-18.64-16.64-40.27-40.15-55.35-19-12.17-44.17-16.11-69-12.5C33.1,37,8.62,145.48,8.62,145.48L7.83,148c.3-16.43,4.11-28.85,10-42.6l.09-.2c.75-1.77,1.55-3.51,2.38-5.25C34.57,70.1,67.2,38.57,93.91,24.13c29.31-15.61,64.78-21,97.09-12.5,39.63,10.45,70.27,44.88,75,86Z"/><path class="cls-2" d="M191.4,210.74c-2.49,1.81-5,3.72-7.64,5.45-41.48,27.1-110,36.87-144.57-8.44-5.66-7.42-8.89-16.56-11.29-25.54a51.45,51.45,0,0,1-1.2-7.41l-.06-2.29.79,2.29C38.52,207.69,71.62,227.6,111.6,224c18.51-1.76,32.31-5.15,47.34-13.21Z"/></svg>