<svg xmlns="http://www.w3.org/2000/svg" viewBox="0 0 379.05 256.22"><defs><style>.cls-1{fill:#fff;}</style></defs><g id="Layer_2" data-name="Layer 2"><g id="Layer_1-2" data-name="Layer 1"><path class="cls-1" d="M79.67,42.88C119,18.72,175,14.81,212,38.15c16.4,10.33,29.06,26,34.89,47.67.49,1.79.91,3.58,1.3,5.38,1.22,5,2.08,18.76,2.5,24.55L238,115.52c-.29-3.16-2.27-14.68-2.73-17.63C225.21,39.07,159.14,23.4,112,42.88c-46,19-80.69,51.31-92.86,97.48a89.1,89.1,0,0,0-3.4,18.07c-2.1,26.62,9.18,49.37,28,64,16.16,12.53,37.92,19,61.61,16.85,27.44-2.59,50.58-13.33,71.17-29.18,5.36-4.13,10.53-8.63,15.58-13.39a144.15,144.15,0,0,0,11.79-10.8h17.93C176.28,254,70,284.8,16.31,217.25,4.38,199.57-.1,180.12.94,160.66a122,122,0,0,1,10-41.25L13.37,114A165.9,165.9,0,0,1,50.16,64.3S64.11,51.57,79.67,42.88Z"/><path class="cls-1" d="M152.6,81.51h-5.68l1.19-5.69H168l-1.19,5.69h-5.68l-7.22,34.09h-8.52Z"/><path class="cls-1" d="M170.56,75.82h8.52L176.7,87.19H180c8.41,0,10.34,2.61,9.72,5.68l-4.83,22.73h-8.52l4.2-19.89a2.25,2.25,0,0,0-2-2.84H175.5l-4.83,22.73h-8.52Z"/><path class="cls-1" d="M199.2,104.23l-.63,2.85a2.23,2.23,0,0,0,2.28,2.84,3.63,3.63,0,0,0,3.41-2.84h8.52l-.57,2.84c-.68,3.12-3.75,5.68-12.67,5.68-8.69,0-10.74-2.56-10.06-5.68l3.64-17c.62-3.13,3.75-5.68,12.56-5.68s10.79,2.55,10.17,5.68l-2.45,11.36Zm1.19-5.68h5.68l.63-2.84a2.2,2.2,0,0,0-2.22-2.84A3.68,3.68,0,0,0,201,95.71Z"/><path class="cls-1" d="M60.51,104.86H92.93L90.8,115H73.58l-4.26,20.26h15.2l-2.23,10.13H67.09l-6.38,30.4H45.51Z"/><path class="cls-1" d="M92.42,125.12h15.2L96.88,175.78H81.68Z"/><path class="cls-1" d="M118,104.86h15.19l-4.25,20.26h12.16l-2.13,10.13H126.77l-5.47,25.33a4,4,0,0,0,4,5.07h7.09l-2.12,10.13H122c-14.79,0-18.14-4.76-16.92-10.13Z"/><path class="cls-1" d="M147.14,125.12h21.07c15,0,18.44,4.66,17.33,10.13l-8.62,40.53H161.73l7.49-35.46c.51-2.64-1-4.87-3.54-5.07h-5.47l-8.62,40.53H136.4Z"/><path class="cls-1" d="M202.46,155.51l-1.12,5.07a4,4,0,0,0,4.06,5.07,6.45,6.45,0,0,0,6.07-5.07h15.2l-1,5.07c-1.22,5.57-6.69,10.13-22.6,10.13-15.5,0-19.14-4.56-17.93-10.13l6.49-30.4c1.11-5.57,6.68-10.13,22.39-10.13s19.25,4.56,18.13,10.13l-4.35,20.26Zm2.12-10.13h10.14l1.11-5.06c.61-2.84-1.11-5.07-4-5.07a6.58,6.58,0,0,0-6.18,5.07Z"/><path class="cls-1" d="M231.74,165.65l1-5.07H248v.2a4,4,0,0,0,4.05,4.87,6.46,6.46,0,0,0,6.08-5.07c.61-2.84-1.11-5.07-3.95-5.07-15.7,0-19.25-4.55-18.14-10.13l2.23-10.13c1.12-5.57,6.69-10.13,24.12-10.13,6.79,0,17.53.91,16.41,10.13l-1.11,5.07h-15.2v-.21a3.88,3.88,0,0,0-3.95-4.86,6.57,6.57,0,0,0-6.18,5.07,3.92,3.92,0,0,0,3.95,5.06c15.7,0,19.35,4.56,18.13,10.13l-2.12,10.14c-1.22,5.57-6.69,10.13-24.12,10.13C241.36,175.78,230.52,174.87,231.74,165.65Z"/><path class="cls-1" d="M276.73,165.65l1-5.07h15.2v.2a3.94,3.94,0,0,0,4.05,4.87,6.46,6.46,0,0,0,6.08-5.07,3.92,3.92,0,0,0-3.95-5.07c-15.71,0-19.25-4.55-18.14-10.13l2.23-10.13c1.12-5.57,6.69-10.13,24.11-10.13,6.79,0,17.53.91,16.42,10.13l-1.12,5.07H307.43v-.21a3.89,3.89,0,0,0-4-4.86,6.59,6.59,0,0,0-6.18,5.07,3.93,3.93,0,0,0,4,5.06c15.7,0,19.35,4.56,18.13,10.13l-2.13,10.14c-1.21,5.57-6.68,10.13-24.11,10.13C286.35,175.78,275.51,174.87,276.73,165.65Z"/><path class="cls-1" d="M233.56,241a4,4,0,0,0,4.06,5.06,6.45,6.45,0,0,0,6.07-5.06l1.12-5.07H260l-2.13,10.13c-1.22,5.57-6.69,10.13-22.59,10.13-15.51,0-19.15-4.56-17.94-10.13l10.74-50.66c1.22-5.57,6.69-10.13,22.39-10.13s19.36,4.56,18.14,10.13l-2.13,10.13h-15.2l1-5.06a3.92,3.92,0,0,0-3.95-5.07,6.57,6.57,0,0,0-6.18,5.07Z"/><path class="cls-1" d="M276.83,185.3H292l-15,70.92h-15.2Z"/><path class="cls-1" d="M323.64,256.22H302.56c-15,0-18.54-4.66-17.32-10.13l8.61-40.53h15.2L301.45,241a4,4,0,0,0,3.65,5.06h5.47l8.61-40.53h15.2Z"/><path class="cls-1" d="M344.71,185.3h15.2l-4.26,20.26h5.88c15,.1,18.44,4.66,17.33,10.14l-6.49,30.39c-1.21,5.57-6.69,10.13-22.39,10.13H329.72ZM347,246.09h5.07a6.47,6.47,0,0,0,6.08-5.06l4.35-20.27c.51-2.63-1-4.86-3.54-5.06h-5.47Z"/><path class="cls-1" d="M262.28,115.82c-2.84.1-11.58-.07-11.58-.07-.45-4.81-1.81-20.23-3.26-26.13l-1.59-6.27c-5.3-18.76-16.75-40.53-40.41-55.72C186.35,15.38,161,11.42,136,15.05,25.44,29.63.79,138.79.79,138.79L0,141.3c.3-16.54,4.13-29,10.06-42.88l.09-.2c.76-1.78,1.56-3.53,2.4-5.28,14.37-30,47.21-61.77,74.1-76.31C116.16.92,151.87-4.53,184.39,4.05c39.9,10.52,70.74,45.18,75.49,86.55Z"/><path class="cls-1" d="M203.9,185.88a140.52,140.52,0,0,1-11.79,10.79A181.72,181.72,0,0,1,176.53,208c-41.76,27.3-110.19,39.08-145-6.54-5.68-7.44-8.95-16.65-11.35-25.69A50.58,50.58,0,0,1,19,168.3L18.93,166l.78,2.3c11.2,33.13,44.52,53.17,84.75,49.47,29.45-2.77,53.61-14.24,75.3-31.9Z"/><path class="cls-1" d="M112.19,104.85c-.88,4-2.23,10.1-2.23,10.1H94.55l2.08-10.1Z"/><line class="cls-1" x1="112.19" y1="104.85" x2="96.63" y2="104.85"/></g></g></svg>