<svg xmlns="http://www.w3.org/2000/svg" viewBox="0 0 260.53 254.04"><defs><style>.cls-1{fill:#fc0800;}</style></defs><g id="Layer_2" data-name="Layer 2"><g id="Layer_1-2" data-name="Layer 1"><path d="M249,115l-12.57-.25c-.31-3.12-2.26-14.58-2.73-17.5-10-58.44-75.64-74-122.51-54.65C65.54,61.44,31.05,93.55,19,139.42a86.8,86.8,0,0,0-3.37,18c-2.09,26.43,9.11,49,27.85,63.54,16.06,12.47,37.67,18.94,61.2,16.76,27.24-2.59,50.24-13.24,70.7-29,3-2.34,3.4-3,6.3-5.54h23c-50.07,55.54-139.79,74-188.5,12.68C4.34,198.25-.09,178.93.94,159.6a120.67,120.67,0,0,1,9.93-41l2.42-5.35A164.61,164.61,0,0,1,49.84,63.86S63.67,51.23,79.15,42.59c39.09-24,94.68-27.88,131.45-4.69,16.29,10.26,28.86,25.85,34.66,47.35.47,1.78.89,3.56,1.28,5.35C247.77,95.56,248.61,109.22,249,115Z"/><path d="M87.1,74.42h49.58L133,89.92H106.68l-7.31,31h23.24L118.8,136.4H95.56l-11,46.48H61.35Z"/><path d="M150.2,161.24c-1.1,4.56,1.74,8.14,6.3,8.14a10.75,10.75,0,0,0,10-8.14l2-8.15h24.44l-3.85,16.29c-2.19,9-11.17,16.29-36.75,16.29-24.93,0-30.6-7.33-28.41-16.29L143.3,87.92c2.19-9,11.18-16.29,36.43-16.29S210.66,79,208.47,87.92l-3.85,16.3H180.19L182,96.07c1.09-4.56-1.58-8.15-6.15-8.15a10.92,10.92,0,0,0-10.14,8.15Z"/><path class="cls-1" d="M260.53,115.05c-2.82.1-11.5-.07-11.5-.07-.45-4.78-1.8-20.09-3.23-25.95l-1.58-6.23C239,64.16,227.58,42.53,204.07,27.45c-19-12.17-44.17-16.1-69-12.5C25.27,29.43.79,137.87.79,137.87L0,140.36c.29-16.43,4.11-28.85,10-42.59l.08-.21c.76-1.77,1.56-3.5,2.39-5.24C26.74,62.5,59.36,31,86.07,16.52,115.39.92,150.86-4.5,183.17,4c39.63,10.46,70.26,44.88,75,86Z"/><path class="cls-1" d="M183.56,203.13c-2.48,1.82-5,3.73-7.63,5.45-41.49,27.1-110,36.87-144.57-8.44-5.66-7.41-8.9-16.56-11.29-25.54a51.45,51.45,0,0,1-1.2-7.41l-.06-2.29.78,2.29c11.1,32.9,44.19,52.8,84.18,49.15,18.51-1.75,32.3-5.15,47.33-13.21Z"/></g></g></svg>