<svg id="Layer_1" data-name="Layer 1" xmlns="http://www.w3.org/2000/svg" viewBox="0 0 391.65 269.5"><defs><style>.cls-1{fill:#fff;}.cls-2{fill:#fc0800;}</style></defs><path class="cls-1" d="M86.37,50.48c39.35-24.16,95.33-28.07,132.34-4.73,16.4,10.34,29.06,26,34.89,47.68.49,1.79.91,3.58,1.3,5.38,1.22,5,2.08,18.76,2.5,24.55l-12.68-.23c-.29-3.16-2.27-14.68-2.73-17.63-10.07-58.83-76.15-74.49-123.33-55C72.67,69.46,38,101.79,25.8,148A89.1,89.1,0,0,0,22.4,166c-2.1,26.62,9.18,49.37,28,64,16.17,12.53,37.92,19.05,61.61,16.86,27.44-2.59,50.58-13.33,71.18-29.19a202.4,202.4,0,0,0,15.57-13.39,140.65,140.65,0,0,0,11.79-10.8h17.93C183,261.61,76.69,292.41,23,224.86c-11.93-17.68-16.4-37.13-15.37-56.59a122,122,0,0,1,10-41.25l2.44-5.38A165.73,165.73,0,0,1,56.87,71.91S70.81,59.18,86.37,50.48Z"/><path class="cls-1" d="M159.3,89.11h-5.68l1.2-5.68H174.7l-1.19,5.68h-5.68l-7.22,34.1h-8.52Z"/><path class="cls-1" d="M177.26,83.43h8.52L183.4,94.8h3.29c8.41,0,10.34,2.61,9.72,5.68l-4.83,22.73h-8.52l4.2-19.89a2.24,2.24,0,0,0-2-2.84H182.2l-4.83,22.73h-8.52Z"/><path class="cls-1" d="M205.9,111.84l-.63,2.84a2.24,2.24,0,0,0,2.28,2.84,3.63,3.63,0,0,0,3.41-2.84h8.52l-.57,2.84c-.68,3.13-3.75,5.69-12.67,5.69-8.69,0-10.74-2.56-10.06-5.69l3.64-17c.62-3.13,3.75-5.68,12.56-5.68s10.79,2.55,10.17,5.68l-2.44,11.36Zm1.19-5.68h5.69l.62-2.84a2.2,2.2,0,0,0-2.22-2.84,3.68,3.68,0,0,0-3.46,2.84Z"/><path class="cls-1" d="M67.21,112.46H99.63L97.5,122.6H80.28L76,142.86h15.2L89,153H73.8l-6.39,30.4H52.21Z"/><path class="cls-1" d="M99.13,132.73h15.19l-10.74,50.66H88.39Z"/><path class="cls-1" d="M124.66,112.46h15.2l-4.26,20.27h12.16l-2.13,10.13H133.47L128,168.19a4,4,0,0,0,4.05,5.06h7.1L137,183.39h-8.31c-14.79,0-18.14-4.77-16.92-10.14Z"/><path class="cls-1" d="M153.84,132.73h21.07c15,0,18.44,4.66,17.33,10.13l-8.62,40.53H168.43l7.5-35.47c.5-2.63-1-4.86-3.55-5.06h-5.47l-8.61,40.53H143.1Z"/><path class="cls-1" d="M209.16,163.12,208,168.19a4,4,0,0,0,4.06,5.06,6.46,6.46,0,0,0,6.08-5.06h15.19l-1,5.06c-1.22,5.58-6.69,10.14-22.59,10.14-15.5,0-19.15-4.56-17.94-10.14l6.49-30.39c1.11-5.57,6.68-10.13,22.39-10.13s19.25,4.56,18.14,10.13l-4.36,20.26ZM211.29,153h10.13l1.11-5.07a3.92,3.92,0,0,0-3.95-5.06,6.58,6.58,0,0,0-6.18,5.06Z"/><path class="cls-1" d="M238.44,173.25l1-5.06h15.2v.2a3.94,3.94,0,0,0,4,4.86,6.45,6.45,0,0,0,6.08-5.06c.61-2.84-1.11-5.07-3.95-5.07-15.7,0-19.25-4.56-18.13-10.13l2.23-10.13c1.11-5.57,6.68-10.13,24.11-10.13,6.79,0,17.53.91,16.41,10.13l-1.11,5.06h-15.2v-.2a3.88,3.88,0,0,0-3.95-4.86,6.58,6.58,0,0,0-6.18,5.06c-.61,2.84,1.11,5.07,3.95,5.07,15.7,0,19.35,4.56,18.14,10.13L279,173.25c-1.22,5.58-6.69,10.14-24.12,10.14C248.07,183.39,237.22,182.47,238.44,173.25Z"/><path class="cls-1" d="M283.43,173.25l1-5.06h15.2v.2a3.94,3.94,0,0,0,4.05,4.86,6.45,6.45,0,0,0,6.08-5.06c.61-2.84-1.11-5.07-3.95-5.07-15.71,0-19.25-4.56-18.14-10.13l2.23-10.13c1.12-5.57,6.69-10.13,24.12-10.13,6.78,0,17.52.91,16.41,10.13l-1.11,5.06h-15.2v-.2a3.88,3.88,0,0,0-3.95-4.86,6.57,6.57,0,0,0-6.18,5.06c-.61,2.84,1.11,5.07,3.95,5.07,15.7,0,19.35,4.56,18.13,10.13L324,173.25c-1.22,5.58-6.69,10.14-24.12,10.14C293.05,183.39,282.21,182.47,283.43,173.25Z"/><path class="cls-1" d="M240.27,248.63a4,4,0,0,0,4,5.07,6.47,6.47,0,0,0,6.08-5.07l1.11-5.06h15.2l-2.13,10.13c-1.21,5.57-6.69,10.13-22.59,10.13-15.5,0-19.15-4.56-17.94-10.13L234.79,203c1.22-5.57,6.69-10.13,22.4-10.13s19.35,4.56,18.13,10.13l-2.13,10.13H258l1-5.06a3.92,3.92,0,0,0-3.95-5.07,6.57,6.57,0,0,0-6.18,5.07Z"/><path class="cls-1" d="M283.53,192.91h15.2l-15,70.92h-15.2Z"/><path class="cls-1" d="M330.34,263.83H309.26c-15,0-18.54-4.66-17.32-10.13l8.61-40.53h15.2l-7.6,35.46a4,4,0,0,0,3.65,5.07h5.47l8.61-40.53h15.2Z"/><path class="cls-1" d="M351.41,192.91h15.2l-4.25,20.26h5.87c15,.1,18.44,4.66,17.33,10.13l-6.49,30.4c-1.21,5.57-6.68,10.13-22.39,10.13H336.42Zm2.33,60.79h5.07a6.46,6.46,0,0,0,6.08-5.07l4.36-20.26c.5-2.64-1-4.86-3.55-5.07h-5.47Z"/><path class="cls-2" d="M269,123.43c-2.84.1-11.58-.07-11.58-.07-.45-4.81-1.81-20.23-3.25-26.13L252.55,91c-5.3-18.77-16.75-40.54-40.41-55.72C193.05,23,167.67,19,142.69,22.66,32.14,37.24,7.49,146.4,7.49,146.4l-.79,2.51c.3-16.54,4.13-29,10.07-42.88a1.8,1.8,0,0,1,.08-.21c.76-1.78,1.57-3.53,2.41-5.28,14.36-30,47.2-61.76,74.09-76.3,29.51-15.71,65.22-21.16,97.74-12.58,39.9,10.52,70.74,45.18,75.49,86.55Z"/><path class="cls-2" d="M210.6,193.49a142.25,142.25,0,0,1-11.79,10.79,180.74,180.74,0,0,1-15.58,11.34c-41.76,27.3-110.19,39.08-145-6.54-5.68-7.45-8.95-16.65-11.35-25.69a51.23,51.23,0,0,1-1.2-7.49l-.08-2.29.78,2.31c11.2,33.13,44.52,53.16,84.75,49.47,29.45-2.77,53.61-14.24,75.3-31.9Z"/><path class="cls-1" d="M118.89,112.46c-.87,4-2.23,10.1-2.23,10.1H101.25l2.08-10.1Z"/></svg>