<svg xmlns="http://www.w3.org/2000/svg" viewBox="0 0 497.84 253.98"><defs><style>.cls-1{fill:#fff;}</style></defs><g id="Layer_2" data-name="Layer 2"><g id="Layer_1-2" data-name="Layer 1"><path class="cls-1" d="M111.69,104.46c-.88,4-2.22,10.08-2.22,10.08l-15.34,0s1.39-6.82,2.07-10.07Z"/><path class="cls-1" d="M147.37,75.49l-1.17,5.66h5.65l-7.11,34,8.48,0,7.12-33.95H166l1.2-5.66Z"/><path class="cls-1" d="M179.13,86.75h-3.27l2.34-11.32-8.48,0-8.31,39.61,8.49,0,4.76-22.63h3.07a2.26,2.26,0,0,1,2,2.83L175.55,115H184l4.78-22.63C189.43,89.33,187.5,86.79,179.13,86.75Z"/><path class="cls-1" d="M204.69,86.7c-8.76,0-11.86,2.57-12.48,5.68l-3.6,17c-.66,3.13,1.38,5.66,10,5.64,8.87,0,11.94-2.55,12.6-5.67l.57-2.83h-8.49a3.59,3.59,0,0,1-3.39,2.83,2.21,2.21,0,0,1-2.26-2.82l.62-2.83,14.14,0,2.4-11.32C215.45,89.23,213.47,86.69,204.69,86.7Zm1.05,8.48L205.12,98h-5.66l.63-2.83a3.65,3.65,0,0,1,3.43-2.83A2.19,2.19,0,0,1,205.74,95.18Z"/><path class="cls-1" d="M92.5,104.49l-2.11,10.08-17.15,0L69,134.79l15.14,0L82,144.85l-15.14,0-6.31,30.27-15.12,0,14.8-70.62Z"/><path class="cls-1" d="M92,124.66l-10.6,50.45,15.12,0,10.62-50.45Z"/><path class="cls-1" d="M132.54,104.42l-4.2,20.18,12.09,0-2.09,10.09-12.11,0-5.41,25.23a4,4,0,0,0,4.06,5l7.06,0L129.83,175l-8.26,0c-14.73,0-18.07-4.7-16.87-10l12.7-60.54Z"/><path class="cls-1" d="M167.47,124.53l-21,0L135.88,175,151,175l8.5-40.35H165a4,4,0,0,1,3.54,5L161.11,175l15.12,0,8.51-40.35C185.84,129.14,182.39,124.5,167.47,124.53Z"/><path class="cls-1" d="M213.06,124.45c-15.64,0-21.18,4.59-22.28,10.13l-6.4,30.27c-1.19,5.55,2.44,10.07,17.88,10.05,15.84,0,21.27-4.57,22.48-10.12l1-5-15.13,0a6.44,6.44,0,0,1-6,5.06,4,4,0,0,1-4-5l1.1-5.05,25.22,0,4.3-20.18C232.23,129,228.7,124.42,213.06,124.45Zm1.84,15.12-1.11,5.05H203.72l1.1-5a6.54,6.54,0,0,1,6.15-5A3.89,3.89,0,0,1,214.9,139.57Z"/><path class="cls-1" d="M261.17,124.37c-17.35,0-22.89,4.58-24,10.13L235,144.58c-1.1,5.55,2.44,10.09,18.08,10.06a3.9,3.9,0,0,1,3.94,5,6.44,6.44,0,0,1-6.05,5.06,3.93,3.93,0,0,1-4-4.84v-.2l-15.12,0-1,5.05c-1.19,9.17,9.59,10.06,16.36,10,17.36,0,22.78-4.57,24-10.12l2.09-10.09c1.21-5.55-2.44-10.09-18.06-10.06a3.91,3.91,0,0,1-3.94-5,6.53,6.53,0,0,1,6.14-5,3.85,3.85,0,0,1,3.93,4.83v.19l15.14,0,1.1-5C278.62,125.24,267.94,124.36,261.17,124.37Z"/><path class="cls-1" d="M306,124.29c-17.36,0-22.89,4.59-24,10.13l-2.2,10.08c-1.1,5.55,2.44,10.09,18.07,10.06,2.83,0,4.54,2.21,4,5a6.45,6.45,0,0,1-6.05,5.06,3.93,3.93,0,0,1-4-4.84v-.2l-15.14,0-1,5c-1.21,9.17,9.59,10.05,16.36,10,17.34,0,22.78-4.57,24-10.11l2.09-10.1c1.21-5.55-2.44-10.09-18.08-10.06-2.81,0-4.53-2.21-3.92-5a6.51,6.51,0,0,1,6.12-5,3.85,3.85,0,0,1,3.95,4.84v.18l15.14,0,1.1-5C323.41,125.17,312.71,124.28,306,124.29Z"/><path class="cls-1" d="M369.81,104c-15.64,0-21.08,4.57-22.27,10.12l-10.6,50.46c-1.21,5.55,2.44,10.07,17.85,10,15.85,0,21.29-4.56,22.48-10.11l2.11-10.1-15.14,0-1.1,5.05a6.4,6.4,0,0,1-6,5.05,4,4,0,0,1-4-5l8.49-40.36a6.54,6.54,0,0,1,6.14-5.06,3.91,3.91,0,0,1,3.95,5l-1,5.05,15.14,0,2.11-10.09C389.08,108.51,385.45,104,369.81,104Z"/><path class="cls-1" d="M396,104l-14.81,70.62,15.14,0,14.79-70.62Z"/><path class="cls-1" d="M438.22,124.06l-8.49,40.37h-5.45a4,4,0,0,1-3.63-5l7.5-35.32-15.14,0-8.49,40.37c-1.21,5.44,2.33,10.07,17.26,10.05l21,0L453.36,124Z"/><path class="cls-1" d="M480.38,124h-5.84l4.2-20.18-15.12,0-14.81,70.62,20.16,0c15.64,0,21.09-4.56,22.28-10.11l6.4-30.27C498.75,128.6,495.32,124.05,480.38,124Zm1.05,15.12-4.31,20.19a6.42,6.42,0,0,1-6,5.06h-5l6.39-30.28h5.46A4,4,0,0,1,481.43,139.11Z"/><line class="cls-1" x1="111.69" y1="104.46" x2="96.2" y2="104.49"/><path class="cls-1" d="M79.14,42.81C118.27,18.69,174,14.7,210.88,37.87c16.34,10.26,29,25.86,34.81,47.4.49,1.79.92,3.57,1.31,5.36,1.22,5,2.1,18.67,2.53,24.43l-12.62-.2c-.3-3.15-2.29-14.61-2.76-17.55-10.12-58.55-75.93-74-122.87-54.56C65.54,61.72,31.05,94,19,140a89,89,0,0,0-3.35,18c-2,26.51,9.22,49.14,28,63.64C59.8,234,81.47,240.48,105,238.26c27.32-2.63,50.34-13.36,70.81-29.18a198.9,198.9,0,0,0,15.48-13.36A139.43,139.43,0,0,0,203.05,185l17.85,0c-45.22,67.9-151,98.74-204.53,31.59C4.46,198.93,0,179.57,1,160.2a121.61,121.61,0,0,1,9.89-41.08l2.42-5.36A165,165,0,0,1,49.81,64.19S63.67,51.49,79.14,42.81Z"/><path class="cls-1" d="M261.05,115.12c-2.82.1-11.52-.06-11.52-.06-.46-4.79-1.84-20.13-3.29-26l-1.59-6.24c-5.31-18.67-16.75-40.33-40.33-55.4C185.29,15.26,160,11.36,135.16,15,25.13,29.71.78,138.43.78,138.43L0,140.93C.27,124.46,4.06,112,9.94,98.23L10,98q1.14-2.65,2.38-5.26C26.66,62.85,59.3,31.19,86,16.67,115.4,1,150.93-4.51,183.33,4c39.73,10.4,70.5,44.85,75.3,86Z"/><path class="cls-1" d="M203.06,185a141,141,0,0,1-11.72,10.76A180.61,180.61,0,0,1,175.85,207c-41.53,27.24-109.63,39.09-144.33-6.26-5.67-7.41-8.94-16.57-11.34-25.56A49.09,49.09,0,0,1,19,167.77l-.09-2.28.79,2.3c11.2,33,44.4,52.84,84.45,49.09,29.32-2.8,53.35-14.27,74.91-31.88Z"/></g></g></svg>